<?xml version="1.0" standalone="no"?>
<!DOCTYPE svg PUBLIC "-//W3C//DTD SVG 20010904//EN"
 "http://www.w3.org/TR/2001/REC-SVG-20010904/DTD/svg10.dtd">
<svg version="1.0" xmlns="http://www.w3.org/2000/svg"
 width="612.000000pt" height="612.000000pt" viewBox="0 0 612.000000 612.000000"
 preserveAspectRatio="xMidYMid meet">
<metadata>
Created by potrace 1.11, written by Peter Selinger 2001-2013
</metadata>
<g transform="translate(0.000000,612.000000) scale(0.100000,-0.100000)"
fill="#000000" stroke="none">
<path d="M2907 5844 c-1 -1 -36 -5 -77 -8 -95 -8 -158 -15 -190 -21 -14 -3
-41 -7 -60 -10 -19 -3 -84 -17 -145 -31 -126 -29 -116 -26 -175 -44 -25 -8
-47 -14 -50 -15 -77 -17 -404 -158 -500 -215 -8 -5 -51 -30 -95 -56 -293 -173
-533 -385 -778 -689 -48 -59 -131 -180 -183 -267 -206 -341 -322 -673 -388
-1108 -20 -126 -26 -437 -13 -598 24 -282 96 -581 202 -837 279 -676 809
-1219 1479 -1515 65 -29 226 -90 236 -90 5 0 21 -5 37 -12 15 -6 33 -12 38
-14 126 -33 248 -63 275 -68 19 -3 44 -8 55 -10 11 -2 42 -7 68 -10 27 -4 56
-9 65 -11 94 -18 412 -24 590 -11 88 6 245 29 357 51 95 19 316 83 395 115 25
10 70 28 100 40 30 12 108 48 173 81 679 341 1184 925 1422 1644 65 197 116
445 131 635 13 168 7 510 -10 608 -2 9 -7 39 -10 65 -12 79 -20 117 -52 254
-139 587 -506 1161 -980 1533 -81 64 -109 84 -181 133 -320 218 -729 383
-1093 442 -19 3 -46 7 -60 10 -103 18 -232 28 -413 29 -92 1 -169 1 -170 0z
m443 -248 c19 -3 71 -11 115 -17 44 -6 85 -16 91 -20 6 -5 13 -6 16 -4 3 3 27
1 54 -5 27 -7 58 -13 68 -16 28 -5 218 -63 241 -73 11 -5 47 -19 80 -32 92
-34 280 -127 375 -184 91 -56 182 -115 190 -125 3 -3 21 -17 40 -30 19 -13 40
-29 46 -35 7 -5 43 -36 80 -68 84 -70 221 -208 298 -300 330 -395 524 -845
590 -1372 14 -109 15 -491 2 -580 -3 -22 -11 -74 -17 -115 -76 -517 -339
-1035 -719 -1418 -51 -52 -120 -116 -154 -144 -34 -28 -74 -61 -91 -75 -137
-112 -346 -238 -540 -325 -119 -53 -334 -127 -414 -143 -11 -2 -25 -6 -29 -9
-4 -2 -27 -7 -52 -11 -25 -4 -47 -8 -51 -11 -3 -2 -26 -6 -50 -9 -24 -3 -57
-7 -74 -10 -16 -3 -43 -7 -60 -10 -135 -21 -566 -22 -625 -1 -8 3 -37 8 -65
10 -59 6 -184 30 -269 52 -365 93 -745 291 -1031 535 -194 166 -455 478 -555
663 -152 281 -217 442 -279 691 -26 106 -35 151 -56 295 -23 159 -23 545 0
655 3 11 7 36 10 55 2 19 7 45 9 56 2 12 7 38 10 59 10 59 54 230 82 314 94
280 250 567 433 796 107 135 328 355 415 414 12 8 23 17 26 21 17 19 161 117
250 170 241 144 517 256 750 305 8 2 35 8 60 13 25 6 67 13 94 17 27 3 52 8
55 10 3 2 46 6 96 9 49 4 91 9 93 11 6 5 419 -3 462 -9z"/>
<path d="M2367 4704 c-1 -1 -36 -5 -77 -8 -73 -7 -174 -30 -256 -60 -93 -33
-246 -120 -308 -175 -188 -167 -301 -344 -363 -566 l-27 -100 -4 -666 -3 -666
68 -59 c37 -32 74 -63 81 -69 7 -5 25 -21 40 -35 15 -14 36 -32 48 -40 12 -8
41 -33 66 -55 46 -41 72 -64 263 -226 61 -51 112 -96 115 -99 3 -3 43 -37 90
-75 47 -38 92 -76 100 -85 8 -8 42 -38 75 -65 33 -28 71 -60 85 -72 53 -46 72
-62 112 -95 23 -18 49 -40 57 -49 9 -8 75 -64 146 -124 72 -60 132 -112 135
-115 3 -3 34 -30 70 -60 36 -30 67 -57 70 -60 3 -3 30 -26 60 -51 l56 -47 24
20 c37 29 120 100 146 123 12 11 41 36 64 54 24 19 48 40 54 46 11 10 180 155
276 235 29 25 69 59 89 76 20 17 131 112 246 210 116 98 216 184 223 191 7 7
34 29 60 50 26 21 52 43 58 48 16 14 103 89 229 196 61 52 115 99 121 104 6 6
31 27 54 46 66 53 90 78 91 97 0 9 1 296 1 637 0 433 -3 640 -11 685 -31 171
-107 346 -207 476 -52 69 -166 183 -213 214 -13 8 -33 22 -45 31 -102 78 -316
157 -471 175 -47 5 -1482 13 -1488 8z m804 -254 c151 -40 271 -162 308 -312 8
-34 11 -370 12 -1225 0 -648 0 -1196 -1 -1219 0 -40 -2 -42 -174 -187 -95 -81
-189 -161 -207 -177 -40 -35 -43 -36 -67 -12 -10 9 -40 36 -67 59 -28 23 -61
51 -75 63 -14 12 -47 40 -74 63 -28 23 -79 67 -115 98 l-66 57 1 1228 c1 1206
1 1230 21 1284 56 153 183 263 331 286 20 3 38 7 39 7 5 6 98 -4 134 -13z
m649 5 c284 -24 565 -237 680 -514 62 -151 63 -160 64 -790 l1 -575 -21 -20
c-12 -12 -32 -30 -45 -40 -23 -19 -119 -99 -169 -143 -61 -53 -78 -67 -125
-106 -27 -23 -68 -58 -90 -77 -22 -20 -83 -71 -135 -115 -52 -44 -97 -82 -100
-85 -15 -17 -142 -120 -148 -120 -4 0 -6 581 -6 1291 2 1318 2 1324 36 1303 4
-3 31 -7 58 -9z m-1412 -1290 c0 -713 -4 -1295 -8 -1293 -9 4 -78 59 -140 113
-25 22 -72 63 -105 90 -68 57 -138 118 -145 125 -3 3 -45 39 -95 80 -49 41
-96 80 -103 87 -7 7 -34 29 -60 50 -25 21 -56 47 -67 58 -11 12 -42 38 -68 59
l-48 39 3 591 c3 573 4 593 25 669 42 146 110 266 217 375 80 83 231 183 291
194 11 1 23 6 26 11 8 11 166 43 226 46 l51 2 0 -1296z"/>
</g>
</svg>
