<?xml version="1.0" standalone="no"?>
<!DOCTYPE svg PUBLIC "-//W3C//DTD SVG 20010904//EN"
 "http://www.w3.org/TR/2001/REC-SVG-20010904/DTD/svg10.dtd">
<svg version="1.0" xmlns="http://www.w3.org/2000/svg"
 width="216.000000pt" height="216.000000pt" viewBox="0 0 216.000000 216.000000"
 preserveAspectRatio="xMidYMid meet">
<metadata>
Created by potrace 1.11, written by Peter Selinger 2001-2013
</metadata>
<g transform="translate(0.000000,216.000000) scale(0.100000,-0.100000)"
fill="#000000" stroke="none">
<path d="M909 1985 c-392 -74 -708 -403 -769 -799 -11 -71 -14 -232 -5 -276 2
-13 7 -42 11 -65 9 -65 53 -185 96 -264 273 -504 897 -667 1372 -358 453 296
575 903 272 1355 -40 60 -128 158 -186 205 -96 80 -232 151 -360 187 -99 28
-321 36 -431 15z m316 -10 c134 -18 285 -77 405 -158 75 -51 213 -197 261
-277 251 -416 170 -923 -196 -1236 -162 -138 -364 -214 -584 -219 -366 -8
-701 195 -866 525 -149 297 -129 662 53 940 121 185 302 325 502 388 92 28
107 32 180 39 36 3 66 7 68 8 4 3 132 -3 177 -10z"/>
<path d="M935 1925 c-224 -44 -403 -153 -547 -334 -285 -357 -251 -885 79
-1202 233 -224 540 -306 848 -228 314 80 560 327 646 650 33 121 33 329 1 447
-57 212 -173 381 -347 510 -96 71 -209 121 -345 153 -65 16 -265 18 -335 4z
m320 -20 c321 -63 570 -285 677 -605 31 -91 32 -102 33 -255 0 -179 -12 -242
-71 -373 -103 -227 -300 -405 -528 -478 -323 -102 -661 -21 -897 215 -284 285
-340 726 -136 1076 129 222 374 389 627 428 60 9 232 4 295 -8z"/>
<path d="M753 1592 c-102 -36 -179 -107 -225 -208 -22 -46 -23 -64 -26 -293
l-3 -245 33 -30 c19 -17 61 -53 94 -81 32 -27 73 -62 89 -76 35 -31 198 -171
235 -203 157 -132 139 -124 186 -81 6 6 29 25 52 43 23 19 52 44 65 55 13 12
48 42 77 67 30 25 61 52 70 60 9 8 43 37 75 65 33 27 62 52 65 55 6 6 133 113
139 117 8 5 6 428 -1 473 -17 94 -73 178 -158 236 -87 59 -111 63 -428 63
-252 1 -293 -2 -339 -17z m422 -4 c3 -2 -15 -14 -38 -25 l-43 -21 -49 21 c-35
15 -43 22 -31 27 19 6 154 5 161 -2z m258 -15 c27 -8 46 -17 43 -20 -7 -7
-130 -10 -149 -4 -10 4 -12 12 -7 27 9 24 29 24 113 -3z m-567 1 c-3 -9 -6
-19 -6 -23 0 -5 -36 -8 -79 -7 -44 1 -76 5 -72 9 16 16 86 36 125 37 31 0 37
-3 32 -16z m62 -6 c-2 -15 -10 -23 -23 -23 -13 0 -21 8 -23 23 -3 18 1 22 23
22 22 0 26 -4 23 -22z m307 -16 c-9 -10 -85 -12 -85 -3 0 5 17 15 38 23 31 12
38 12 45 0 5 -7 6 -16 2 -20z m65 19 c0 -20 -36 -36 -46 -20 -10 17 5 39 26
39 13 0 20 -7 20 -19z m-299 -6 c19 -8 30 -15 24 -15 -5 -1 -25 -3 -42 -6 -28
-3 -33 -1 -33 16 0 24 7 25 51 5z m-261 -44 c0 -5 -8 -12 -17 -15 -24 -8 -85
-64 -107 -98 -25 -38 -36 -35 -36 8 0 29 8 44 39 75 32 33 45 39 80 39 22 0
41 -4 41 -9z m125 -434 c0 -240 -2 -437 -6 -437 -3 0 -67 52 -142 116 l-136
116 2 211 c2 198 4 215 25 262 27 60 73 110 124 136 39 20 105 39 123 35 6 -2
10 -158 10 -439z m282 428 c22 -9 49 -31 63 -52 l24 -36 1 -429 0 -430 -68
-61 c-78 -69 -74 -69 -165 11 l-53 48 1 424 c1 234 2 431 2 439 2 21 73 89
100 94 43 8 58 7 95 -8z m289 -15 c55 -24 106 -75 137 -136 25 -49 26 -56 27
-267 l1 -216 -32 -28 c-18 -15 -40 -35 -49 -43 -9 -8 -45 -40 -81 -70 -35 -30
-70 -60 -77 -67 -8 -7 -21 -17 -30 -22 -16 -8 -17 22 -15 417 1 235 2 435 2
446 1 16 6 17 39 11 20 -3 55 -15 78 -25z m125 -8 c38 -35 40 -40 37 -87 l-3
-50 -16 35 c-17 38 -103 120 -125 120 -7 0 -16 5 -19 10 -4 6 12 10 40 10 39
0 52 -5 86 -38z m-631 -252 c0 -273 0 -280 -20 -280 -20 0 -20 7 -20 280 0
273 0 280 20 280 20 0 20 -7 20 -280z m303 237 c-9 -16 -26 12 -18 30 7 17 8
17 15 -2 4 -11 5 -24 3 -28z m64 -237 c0 -265 -1 -280 -19 -280 -17 0 -18 15
-18 280 0 265 1 280 18 280 18 0 19 -15 19 -280z m-317 261 c0 -5 -7 -14 -15
-21 -13 -10 -15 -9 -15 9 0 12 6 21 15 21 8 0 15 -4 15 -9z m-415 -261 c0 -88
-3 -160 -6 -160 -7 0 -22 36 -34 76 -11 43 -7 144 10 193 9 28 20 51 23 51 4
0 7 -72 7 -160z m1085 106 c16 -51 18 -135 4 -190 -26 -98 -34 -77 -34 83 0
151 7 176 30 107z m-1085 -379 c2 -64 -5 -75 -28 -49 -15 16 -21 69 -17 152
l1 35 21 -40 c14 -26 22 -61 23 -98z m1100 48 c-1 -64 -4 -78 -23 -97 l-22
-22 0 66 c0 45 6 76 18 97 9 17 19 31 22 31 3 0 5 -34 5 -75z m-735 -100 c0
-20 -5 -25 -25 -25 -23 0 -27 10 -16 48 1 1 10 2 21 2 15 0 20 -7 20 -25z
m354 19 c9 -3 16 -15 16 -26 0 -29 -43 -20 -45 10 -2 23 3 26 29 16z m-720
-87 c4 -30 -1 -32 -26 -13 -11 8 -18 27 -18 47 l0 33 21 -20 c11 -12 22 -33
23 -47z m1101 20 c-3 -12 -13 -28 -22 -35 -16 -12 -18 -10 -21 13 -2 17 3 32
15 40 23 17 33 11 28 -18z m-735 -139 l0 -142 -21 20 c-21 21 -22 35 -20 207
1 50 3 57 21 57 19 0 20 -7 20 -142z m368 17 c-1 -91 -5 -128 -15 -137 -7 -6
-16 -8 -19 -5 -3 3 -7 64 -7 136 -2 130 -2 131 20 131 23 0 23 -2 21 -125z
m-640 48 c37 -32 80 -69 96 -83 87 -73 111 -99 112 -124 1 -14 -1 -26 -4 -26
-5 0 -63 46 -112 90 -14 12 -58 50 -97 83 -58 49 -73 67 -73 89 0 15 3 28 6
28 3 0 36 -26 72 -57z m942 29 c0 -25 -21 -47 -137 -146 -88 -76 -139 -113
-143 -105 -13 21 2 48 47 85 25 21 55 47 67 58 12 12 41 37 66 57 25 20 54 46
65 57 27 28 35 27 35 -6z m-688 -249 c10 -9 18 -30 18 -46 l0 -30 -25 23 c-14
14 -24 33 -23 47 3 27 6 28 30 6z m372 -44 c-9 -10 -21 -19 -26 -19 -15 0 0
51 19 65 16 12 18 11 21 -6 2 -12 -4 -29 -14 -40z m-256 -54 c19 -16 40 -35
47 -42 14 -13 41 5 115 74 19 18 35 31 37 29 1 -1 4 -13 7 -27 4 -24 -15 -46
-105 -119 l-37 -30 -70 57 c-62 51 -71 62 -71 92 l-1 34 22 -19 c12 -10 38
-32 56 -49z"/>
</g>
</svg>
