<svg id="Layer_2" xmlns="http://www.w3.org/2000/svg" viewBox="0 0 612 792"><style>.st0{fill:#231F20;}</style><path class="st0" d="M133.3 451.5c0-5.9-.1-119.8 0-121.8.5-8.7 2.1-17.4 4.6-25.7 3.2-10.4 8-20.2 14.3-29.2 1.4-2.1 3-4.2 4.6-6.2 4.9-6 10.4-11.6 16.4-16.4 2-1.6 4.1-3.2 6.2-4.6 9.1-6.3 19-11.1 29.5-14.3 10.1-3.1 20.6-4.6 31.3-4.6h131.9c10.7 0 21.2 1.6 31.3 4.6 10.5 3.2 20.5 8 29.5 14.3 2.1 1.5 4.2 3 6.2 4.6 6 4.8 11.6 10.4 16.4 16.4 1.6 2 3.2 4.1 4.6 6.2 6.2 9 11 18.8 14.3 29.2 2.6 8.3 4.2 17 4.6 25.7.1 2 0 115.8 0 121.8L306 598.7 133.3 451.5zm173-200.1c-1.9 0-3.8.1-5.7.4-6.1.8-11.8 2.9-17 6.1-1.5.9-2.9 2-4.2 3-10.1 8.2-15.8 20.3-15.8 33.2v238.4l42.8 36.4 42.8-36.4V294.1c0-12.9-5.8-25-15.8-33.2-1.3-1.1-2.8-2.1-4.2-3-5.2-3.3-10.9-5.3-17-6.1-2.1-.3-4-.4-5.9-.4zm65.4 261.8l84.9-72.2V336.1c0-22.6-8.8-43.9-24.8-59.9-15.9-15.9-37-24.7-59.5-24.8h-.6v261.8zM240.2 251.4c-22.5.1-43.6 8.9-59.5 24.8-16 16-24.8 37.3-24.8 59.9V441l84.9 72.2V251.4h-.6z"/><path class="st0" d="M372.2 229.1c10.6 0 21.1 1.6 31.2 4.6 10.5 3.2 20.4 8 29.4 14.2 2.1 1.5 4.2 3 6.2 4.6 6 4.8 11.5 10.3 16.4 16.3 1.6 2 3.2 4.1 4.6 6.2 6.2 8.9 11 18.7 14.2 29.1 2.6 8.3 4.1 16.9 4.6 25.6.1 1.6 0 79.9 0 121.5L306.3 598 133.8 451.2c0-41.6-.1-119.9 0-121.5.5-8.7 2-17.3 4.6-25.6 3.2-10.4 8-20.2 14.2-29.1 1.4-2.1 3-4.2 4.6-6.2 4.9-6 10.4-11.5 16.4-16.3 2-1.6 4.1-3.2 6.2-4.6 9-6.2 18.9-11 29.4-14.2 10.1-3.1 20.5-4.6 31.2-4.6h131.8m-1 285.2l1.6-1.4 83.9-71.4.4-.3V336.1c0-22.8-8.9-44.2-25-60.2-16-16-37.2-24.8-59.8-25h-1.1V514.3m-64.9 55.3l.6-.6 42.3-36 .4-.3V294.1c0-13.1-5.8-25.3-16-33.6-1.4-1.1-2.8-2.1-4.3-3.1-5.3-3.3-11-5.4-17.2-6.2-1.9-.3-3.9-.4-5.8-.4s-3.9.1-5.8.4c-6.1.8-11.9 2.9-17.2 6.2-1.5.9-2.9 2-4.3 3.1-10.2 8.3-16 20.5-16 33.6v238.7l.4.3 42.3 36 .6.5m-65-55.3V250.9h-1.1c-22.6.1-43.8 9-59.8 25-16.1 16.1-25 37.5-25 60.2v105.2l.4.3 83.9 71.4 1.6 1.3m130.9-286.2H240.3c-10.9 0-21.5 1.6-31.4 4.7-10.7 3.3-20.7 8.1-29.7 14.3-2.1 1.5-4.2 3-6.3 4.7-6.1 4.9-11.6 10.4-16.5 16.5-1.6 2-3.2 4.1-4.7 6.2-6.2 8.9-11.1 18.8-14.3 29.4-2.6 8.2-4.2 16.9-4.7 25.8-.1 2.1 0 122 0 122l173.5 147.6 173.5-147.6s.1-120 0-122c-.5-8.9-2.1-17.6-4.7-25.8-3.3-10.6-8.2-20.5-14.3-29.4-1.5-2.1-3-4.2-4.7-6.2-4.9-6.1-10.4-11.6-16.5-16.5-2-1.6-4.1-3.2-6.3-4.7-9-6.2-19-11.1-29.7-14.3-9.8-3-20.3-4.7-31.3-4.7zm0 284V251.9h.1c22.3.1 43.3 8.9 59.1 24.7 15.9 15.9 24.7 37.1 24.7 59.5v104.7l-83.9 71.3zm-65.9 56.2l-42.3-36V294.1c0-13.2 6.1-25.1 15.7-32.8 1.3-1.1 2.7-2.1 4.2-3 5-3.1 10.7-5.3 16.8-6.1 1.9-.3 3.7-.4 5.7-.4 1.9 0 3.8.1 5.7.4 6.1.8 11.8 2.9 16.8 6.1 1.5.9 2.9 1.9 4.2 3 9.5 7.8 15.7 19.6 15.7 32.8v238.2l-42.5 36zm-66-56.2l-83.9-71.4V336.1c0-22.5 8.8-43.6 24.7-59.5 15.8-15.8 36.8-24.5 59.1-24.7h.1v260.2z"/><g><path class="st0" d="M306 677.5c-75.2 0-145.9-29.3-199.1-82.5-53.2-53.1-82.4-123.8-82.4-199S53.8 250.1 107 196.9c53.2-53.2 123.9-82.5 199.1-82.5 75.2 0 145.9 29.3 199.1 82.5 53.2 53.2 82.5 123.9 82.5 199.1s-29.3 145.9-82.5 199.1-124 82.4-199.2 82.4zm.3-540.7c-35 0-68.9 6.8-100.8 20.3-15.3 6.5-30.1 14.5-44 23.9-13.7 9.3-26.6 19.9-38.3 31.6-11.7 11.7-22.4 24.6-31.6 38.3-9.3 13.8-17.4 28.6-23.9 44-13.5 31.9-20.3 65.8-20.3 100.8s6.8 68.9 20.3 100.8c6.5 15.3 14.5 30.1 23.9 44 9.3 13.7 19.9 26.6 31.6 38.3 11.7 11.7 24.6 22.3 38.3 31.6 13.8 9.4 28.6 17.4 44 23.9 31.9 13.5 65.8 20.3 100.8 20.3s68.9-6.8 100.8-20.3c15.3-6.5 30.1-14.5 44-23.9 13.7-9.3 26.6-19.9 38.3-31.6 11.7-11.7 22.4-24.6 31.6-38.3 9.3-13.8 17.4-28.6 23.9-44 13.5-31.9 20.3-65.8 20.3-100.8s-6.8-68.9-20.3-100.8c-6.5-15.4-14.5-30.2-23.9-44-9.3-13.7-19.9-26.6-31.6-38.3-11.7-11.7-24.6-22.3-38.3-31.6-13.8-9.4-28.6-17.4-44-23.9-32-13.4-65.9-20.3-100.8-20.3z"/><path class="st0" d="M306 115c37.9 0 74.7 7.4 109.4 22.1 33.5 14.2 63.5 34.4 89.3 60.2 25.8 25.8 46.1 55.9 60.2 89.3C579.6 321.3 587 358.1 587 396c0 37.9-7.4 74.7-22.1 109.4-14.2 33.5-34.4 63.5-60.2 89.3-25.8 25.8-55.9 46.1-89.3 60.2C380.7 669.6 343.9 677 306 677c-37.9 0-74.7-7.4-109.4-22.1-33.5-14.2-63.5-34.4-89.3-60.2-25.8-25.8-46.1-55.9-60.2-89.3C32.4 470.7 25 433.9 25 396s7.4-74.7 22.1-109.4c14.2-33.5 34.4-63.5 60.2-89.3 25.8-25.8 55.9-46.1 89.3-60.2C231.3 122.4 268.1 115 306 115m.3 540.1c35 0 69-6.9 101-20.4 15.4-6.5 30.2-14.5 44.1-23.9 13.7-9.3 26.7-19.9 38.4-31.7s22.4-24.7 31.7-38.4c9.4-13.8 17.4-28.7 23.9-44.1 13.5-32 20.4-65.9 20.4-101 0-35-6.9-69-20.4-101-6.5-15.4-14.6-30.2-23.9-44.1-9.3-13.7-19.9-26.7-31.7-38.4-11.7-11.7-24.6-22.4-38.4-31.7-13.9-9.4-28.7-17.4-44.1-23.9-32-13.5-66-20.4-101-20.4s-69 6.9-101 20.4c-15.4 6.5-30.2 14.5-44.1 23.9-13.8 9.3-26.7 20-38.4 31.7s-22.4 24.6-31.7 38.4c-9.4 13.9-17.4 28.7-23.9 44.1-13.5 32-20.4 65.9-20.4 101 0 35 6.9 69 20.4 101 6.5 15.4 14.6 30.2 23.9 44.1 9.3 13.7 19.9 26.6 31.7 38.4 11.7 11.7 24.6 22.4 38.4 31.7 13.9 9.4 28.7 17.4 44.1 23.9 32 13.6 66 20.4 101 20.4M306 114C150.2 114 24 240.2 24 396s126.3 282 282 282c155.8 0 282-126.3 282-282S461.8 114 306 114zm.3 540.1c-34.9 0-68.7-6.8-100.6-20.3-15.3-6.5-30.1-14.5-43.9-23.8-13.7-9.2-26.6-19.9-38.2-31.6-11.7-11.7-22.3-24.6-31.6-38.2-9.3-13.8-17.3-28.6-23.8-43.9-13.5-31.9-20.3-65.7-20.3-100.6 0-34.9 6.8-68.7 20.3-100.6 6.5-15.3 14.5-30.1 23.8-43.9 9.2-13.7 19.9-26.6 31.6-38.2 11.7-11.7 24.6-22.3 38.2-31.6 13.8-9.3 28.6-17.3 43.9-23.8 31.9-13.5 65.7-20.3 100.6-20.3 34.9 0 68.7 6.8 100.6 20.3 15.3 6.5 30.1 14.5 43.9 23.8 13.7 9.2 26.5 19.9 38.2 31.6 11.7 11.7 22.3 24.6 31.6 38.2 9.3 13.8 17.3 28.6 23.8 43.9 13.5 31.9 20.3 65.7 20.3 100.6 0 34.9-6.8 68.7-20.3 100.6-6.5 15.3-14.5 30.1-23.8 43.9-9.2 13.7-19.9 26.5-31.6 38.2-11.7 11.7-24.6 22.3-38.2 31.6-13.8 9.3-28.6 17.3-43.9 23.8-31.9 13.5-65.7 20.3-100.6 20.3z"/></g></svg>