<?xml version="1.0" encoding="utf-8"?>
<!-- Generator: Adobe Illustrator 19.0.0, SVG Export Plug-In . SVG Version: 6.00 Build 0)  -->
<svg version="1.1" id="Layer_2" xmlns="http://www.w3.org/2000/svg" xmlns:xlink="http://www.w3.org/1999/xlink" x="0px" y="0px"
	 viewBox="0 0 612 792" style="enable-background:new 0 0 612 792;" xml:space="preserve">
<style type="text/css">
	.st0{fill:#231F20;}
</style>
<g>
	<g>
		<path class="st0" d="M133.3,451.5c0-5.9-0.1-119.8,0-121.8c0.5-8.7,2.1-17.4,4.6-25.7c3.2-10.4,8-20.2,14.3-29.2
			c1.4-2.1,3-4.2,4.6-6.2c4.9-6,10.4-11.6,16.4-16.4c2-1.6,4.1-3.2,6.2-4.6c9.1-6.3,19-11.1,29.5-14.3c10.1-3.1,20.6-4.6,31.3-4.6
			h131.9c10.7,0,21.2,1.6,31.3,4.6c10.5,3.2,20.5,8,29.5,14.3c2.1,1.5,4.2,3,6.2,4.6c6,4.8,11.6,10.4,16.4,16.4
			c1.6,2,3.2,4.1,4.6,6.2c6.2,9,11,18.8,14.3,29.2c2.6,8.3,4.2,17,4.6,25.7c0.1,2,0,115.8,0,121.8l-173,147.2L133.3,451.5z
			 M306.3,251.4c-1.9,0-3.8,0.1-5.7,0.4c-6.1,0.8-11.8,2.9-17,6.1c-1.5,0.9-2.9,2-4.2,3c-10.1,8.2-15.8,20.3-15.8,33.2v238.4
			l42.8,36.4l42.8-36.4V294.1c0-12.9-5.8-25-15.8-33.2c-1.3-1.1-2.8-2.1-4.2-3c-5.2-3.3-10.9-5.3-17-6.1
			C310.1,251.5,308.2,251.4,306.3,251.4z M371.7,513.2l84.9-72.2V336.1c0-22.6-8.8-43.9-24.8-59.9c-15.9-15.9-37-24.7-59.5-24.8
			h-0.6V513.2z M240.2,251.4c-22.5,0.1-43.6,8.9-59.5,24.8c-16,16-24.8,37.3-24.8,59.9V441l84.9,72.2V251.4H240.2z"/>
		<path class="st0" d="M372.2,229.1c10.6,0,21.1,1.6,31.2,4.6c10.5,3.2,20.4,8,29.4,14.2c2.1,1.5,4.2,3,6.2,4.6
			c6,4.8,11.5,10.3,16.4,16.3c1.6,2,3.2,4.1,4.6,6.2c6.2,8.9,11,18.7,14.2,29.1c2.6,8.3,4.1,16.9,4.6,25.6c0.1,1.6,0,79.9,0,121.5
			L306.3,598L133.8,451.2c0-41.6-0.1-119.9,0-121.5c0.5-8.7,2-17.3,4.6-25.6c3.2-10.4,8-20.2,14.2-29.1c1.4-2.1,3-4.2,4.6-6.2
			c4.9-6,10.4-11.5,16.4-16.3c2-1.6,4.1-3.2,6.2-4.6c9-6.2,18.9-11,29.4-14.2c10.1-3.1,20.5-4.6,31.2-4.6H372.2 M371.2,514.3
			l1.6-1.4l83.9-71.4l0.4-0.3v-0.5V336.1c0-22.8-8.9-44.2-25-60.2c-16-16-37.2-24.8-59.8-25h-0.1h-1v1v260.3V514.3 M306.3,569.6
			l0.6-0.6l42.3-36l0.4-0.3v-0.5V294.1c0-13.1-5.8-25.3-16-33.6c-1.4-1.1-2.8-2.1-4.3-3.1c-5.3-3.3-11-5.4-17.2-6.2
			c-1.9-0.3-3.9-0.4-5.8-0.4c-1.9,0-3.9,0.1-5.8,0.4c-6.1,0.8-11.9,2.9-17.2,6.2c-1.5,0.9-2.9,2-4.3,3.1c-10.2,8.3-16,20.5-16,33.6
			v238.2v0.5l0.4,0.3l42.3,36L306.3,569.6 M241.3,514.3v-2.2V251.9v-1h-1h-0.1c-22.6,0.1-43.8,9-59.8,25c-16.1,16.1-25,37.5-25,60.2
			v104.7v0.5l0.4,0.3l83.9,71.4L241.3,514.3 M372.2,228.1H240.3c-10.9,0-21.5,1.6-31.4,4.7c-10.7,3.3-20.7,8.1-29.7,14.3
			c-2.1,1.5-4.2,3-6.3,4.7c-6.1,4.9-11.6,10.4-16.5,16.5c-1.6,2-3.2,4.1-4.7,6.2c-6.2,8.9-11.1,18.8-14.3,29.4
			c-2.6,8.2-4.2,16.9-4.7,25.8c-0.1,2.1,0,122,0,122l173.5,147.6l173.5-147.6c0,0,0.1-120,0-122c-0.5-8.9-2.1-17.6-4.7-25.8
			c-3.3-10.6-8.2-20.5-14.3-29.4c-1.5-2.1-3-4.2-4.7-6.2c-4.9-6.1-10.4-11.6-16.5-16.5c-2-1.6-4.1-3.2-6.3-4.7
			c-9-6.2-19-11.1-29.7-14.3C393.7,229.8,383.2,228.1,372.2,228.1L372.2,228.1z M372.2,512.1V251.9h0.1c22.3,0.1,43.3,8.9,59.1,24.7
			c15.9,15.9,24.7,37.1,24.7,59.5v104.7L372.2,512.1L372.2,512.1z M306.3,568.3l-42.3-36V294.1c0-13.2,6.1-25.1,15.7-32.8
			c1.3-1.1,2.7-2.1,4.2-3c5-3.1,10.7-5.3,16.8-6.1c1.9-0.3,3.7-0.4,5.7-0.4c1.9,0,3.8,0.1,5.7,0.4c6.1,0.8,11.8,2.9,16.8,6.1
			c1.5,0.9,2.9,1.9,4.2,3c9.5,7.8,15.7,19.6,15.7,32.8v238.2L306.3,568.3L306.3,568.3z M240.3,512.1l-83.9-71.4V336.1
			c0-22.5,8.8-43.6,24.7-59.5c15.8-15.8,36.8-24.5,59.1-24.7h0.1V512.1L240.3,512.1z"/>
	</g>
	<g>
		<path class="st0" d="M306,677.5c-75.2,0-145.9-29.3-199.1-82.5C53.7,541.9,24.5,471.2,24.5,396c0-75.2,29.3-145.9,82.5-199.1
			c53.2-53.2,123.9-82.5,199.1-82.5c75.2,0,145.9,29.3,199.1,82.5c53.2,53.2,82.5,123.9,82.5,199.1s-29.3,145.9-82.5,199.1
			S381.2,677.5,306,677.5z M306.3,136.8c-35,0-68.9,6.8-100.8,20.3c-15.3,6.5-30.1,14.5-44,23.9c-13.7,9.3-26.6,19.9-38.3,31.6
			c-11.7,11.7-22.4,24.6-31.6,38.3c-9.3,13.8-17.4,28.6-23.9,44c-13.5,31.9-20.3,65.8-20.3,100.8c0,35,6.8,68.9,20.3,100.8
			c6.5,15.3,14.5,30.1,23.9,44c9.3,13.7,19.9,26.6,31.6,38.3c11.7,11.7,24.6,22.3,38.3,31.6c13.8,9.4,28.6,17.4,44,23.9
			c31.9,13.5,65.8,20.3,100.8,20.3c35,0,68.9-6.8,100.8-20.3c15.3-6.5,30.1-14.5,44-23.9c13.7-9.3,26.6-19.9,38.3-31.6
			c11.7-11.7,22.4-24.6,31.6-38.3c9.3-13.8,17.4-28.6,23.9-44c13.5-31.9,20.3-65.8,20.3-100.8c0-35-6.8-68.9-20.3-100.8
			c-6.5-15.4-14.5-30.2-23.9-44c-9.3-13.7-19.9-26.6-31.6-38.3c-11.7-11.7-24.6-22.3-38.3-31.6c-13.8-9.4-28.6-17.4-44-23.9
			C375.1,143.7,341.2,136.8,306.3,136.8z"/>
		<path class="st0" d="M306,115c37.9,0,74.7,7.4,109.4,22.1c33.5,14.2,63.5,34.4,89.3,60.2c25.8,25.8,46.1,55.9,60.2,89.3
			C579.6,321.3,587,358.1,587,396c0,37.9-7.4,74.7-22.1,109.4c-14.2,33.5-34.4,63.5-60.2,89.3c-25.8,25.8-55.9,46.1-89.3,60.2
			C380.7,669.6,343.9,677,306,677c-37.9,0-74.7-7.4-109.4-22.1c-33.5-14.2-63.5-34.4-89.3-60.2c-25.8-25.8-46.1-55.9-60.2-89.3
			C32.4,470.7,25,433.9,25,396s7.4-74.7,22.1-109.4c14.2-33.5,34.4-63.5,60.2-89.3c25.8-25.8,55.9-46.1,89.3-60.2
			C231.3,122.4,268.1,115,306,115 M306.3,655.1c35,0,69-6.9,101-20.4c15.4-6.5,30.2-14.5,44.1-23.9c13.7-9.3,26.7-19.9,38.4-31.7
			c11.7-11.8,22.4-24.7,31.7-38.4c9.4-13.8,17.4-28.7,23.9-44.1c13.5-32,20.4-65.9,20.4-101c0-35-6.9-69-20.4-101
			c-6.5-15.4-14.6-30.2-23.9-44.1c-9.3-13.7-19.9-26.7-31.7-38.4c-11.7-11.7-24.6-22.4-38.4-31.7c-13.9-9.4-28.7-17.4-44.1-23.9
			c-32-13.5-66-20.4-101-20.4c-35,0-69,6.9-101,20.4c-15.4,6.5-30.2,14.5-44.1,23.9c-13.8,9.3-26.7,20-38.4,31.7
			c-11.7,11.7-22.4,24.6-31.7,38.4c-9.4,13.9-17.4,28.7-23.9,44.1c-13.5,32-20.4,65.9-20.4,101c0,35,6.9,69,20.4,101
			c6.5,15.4,14.6,30.2,23.9,44.1c9.3,13.7,19.9,26.6,31.7,38.4c11.7,11.7,24.6,22.4,38.4,31.7c13.9,9.4,28.7,17.4,44.1,23.9
			C237.3,648.3,271.3,655.1,306.3,655.1 M306,114C150.2,114,24,240.2,24,396s126.3,282,282,282c155.8,0,282-126.3,282-282
			S461.8,114,306,114L306,114z M306.3,654.1c-34.9,0-68.7-6.8-100.6-20.3c-15.3-6.5-30.1-14.5-43.9-23.8
			c-13.7-9.2-26.6-19.9-38.2-31.6c-11.7-11.7-22.3-24.6-31.6-38.2c-9.3-13.8-17.3-28.6-23.8-43.9c-13.5-31.9-20.3-65.7-20.3-100.6
			c0-34.9,6.8-68.7,20.3-100.6c6.5-15.3,14.5-30.1,23.8-43.9c9.2-13.7,19.9-26.6,31.6-38.2c11.7-11.7,24.6-22.3,38.2-31.6
			c13.8-9.3,28.6-17.3,43.9-23.8c31.9-13.5,65.7-20.3,100.6-20.3c34.9,0,68.7,6.8,100.6,20.3c15.3,6.5,30.1,14.5,43.9,23.8
			c13.7,9.2,26.5,19.9,38.2,31.6c11.7,11.7,22.3,24.6,31.6,38.2c9.3,13.8,17.3,28.6,23.8,43.9c13.5,31.9,20.3,65.7,20.3,100.6
			c0,34.9-6.8,68.7-20.3,100.6c-6.5,15.3-14.5,30.1-23.8,43.9c-9.2,13.7-19.9,26.5-31.6,38.2c-11.7,11.7-24.6,22.3-38.2,31.6
			c-13.8,9.3-28.6,17.3-43.9,23.8C375,647.3,341.2,654.1,306.3,654.1L306.3,654.1z"/>
	</g>
</g>
</svg>
