<?xml version="1.0" encoding="utf-8"?>
<!-- Generator: Adobe Illustrator 16.0.0, SVG Export Plug-In . SVG Version: 6.00 Build 0)  -->
<!DOCTYPE svg PUBLIC "-//W3C//DTD SVG 1.1//EN" "http://www.w3.org/Graphics/SVG/1.1/DTD/svg11.dtd">
<svg version="1.1" id="Layer_1" xmlns="http://www.w3.org/2000/svg" xmlns:xlink="http://www.w3.org/1999/xlink" x="0px" y="0px"
	 width="162px" height="157px" viewBox="235.5 314.5 162 157" enable-background="new 235.5 314.5 162 157" xml:space="preserve">
<g id="XMLID_1_">
	<g id="XMLID_143_">
		<path id="XMLID_536_" d="M270.663,407.652v-28.739c-0.037-0.539-0.049-1.089-0.049-1.628s0.012-1.077,0.049-1.628
			c0.135-2.301,0.539-4.578,1.224-6.769c0.857-2.742,2.118-5.324,3.758-7.687c0.379-0.551,0.795-1.102,1.224-1.628
			c1.285-1.591,2.742-3.048,4.333-4.321c0.526-0.428,1.077-0.832,1.64-1.224c2.387-1.652,5.006-2.913,7.772-3.757
			c2.656-0.808,5.435-1.224,8.238-1.224h34.615c2.803,0,5.581,0.416,8.237,1.224c2.767,0.844,5.386,2.105,7.772,3.757
			c0.563,0.38,1.113,0.796,1.64,1.224c1.592,1.273,3.048,2.729,4.333,4.321c0.429,0.526,0.845,1.077,1.225,1.628
			c1.64,2.362,2.9,4.945,3.758,7.687c0.686,2.191,1.089,4.468,1.224,6.769c0.037,0.539,0.049,1.089,0.049,1.628
			s-0.012,1.077-0.049,1.628v28.752l-45.483,38.69L270.663,407.652z M304.984,435.413l11.163,9.485l11.151-9.485v-5.104
			l-11.151,9.486l-11.163-9.486V435.413z M316.135,355.167c-0.502,0-1.004,0.037-1.493,0.098c-1.579,0.208-3.072,0.747-4.419,1.604
			c-0.392,0.245-0.759,0.514-1.113,0.795c-2.62,2.13-4.125,5.288-4.125,8.654v62.535l11.163,9.498l11.151-9.498V366.33
			c0-3.366-1.506-6.524-4.125-8.653c-0.343-0.282-0.723-0.551-1.102-0.796c-1.358-0.857-2.84-1.396-4.419-1.604
			C317.139,355.204,316.637,355.167,316.135,355.167z M328.399,429.379v5.104l3.893-3.305v-5.104L328.399,429.379z M299.99,431.165
			l3.892,3.306v-5.104l-3.892-3.305V431.165z M333.381,425.131v5.104l22.143-18.838v-5.104L333.381,425.131z M276.747,411.397
			l22.142,18.838v-5.104l-22.142-18.837V411.397z M328.399,427.922l3.893-3.305v-19.144h-0.062
			c-1.249-0.049-2.521-0.195-3.758-0.416l-0.073-0.013V427.922z M303.809,405.07c-1.236,0.22-2.497,0.354-3.758,0.416h-0.061v19.143
			l3.892,3.306v-22.877L303.809,405.07z M333.381,423.687l22.143-18.837v-27.516c0-5.924-2.302-11.481-6.487-15.667
			c-4.162-4.162-9.683-6.463-15.558-6.487h-0.098V423.687L333.381,423.687z M298.791,355.167
			c-5.875,0.037-11.396,2.338-15.557,6.487c-4.186,4.187-6.487,9.755-6.487,15.667v27.515l22.142,18.838v-68.507H298.791z
			 M356.625,405.352v5.104l3.892-3.305v-5.104L356.625,405.352z M271.765,407.15l3.893,3.305v-5.104l-3.893-3.305V407.15z
			 M303.797,400.076c-0.012,0-0.012,0-0.024,0c-1.224,0.257-2.473,0.416-3.721,0.478h-0.061v3.807h0.061
			c1.273-0.062,2.534-0.196,3.77-0.429l0.049-0.013v-3.88L303.797,400.076z M328.399,403.932l0.049,0.012
			c1.236,0.233,2.497,0.38,3.77,0.429h0.062v-3.807h-0.062c-1.248-0.062-2.497-0.221-3.721-0.478c-0.013,0-0.024,0-0.037-0.012
			l-0.073-0.024v3.88H328.399z M360.395,385.669c-0.856,2.742-2.117,5.324-3.758,7.687l-0.012,0.012v10.526l3.892-3.305v-15.3
			L360.395,385.669z M271.765,400.603l3.893,3.305v-10.526l-0.012-0.013c-1.64-2.362-2.901-4.945-3.758-7.687l-0.123-0.379V400.603z
			 M332.218,355.204c-1.261,0.061-2.509,0.232-3.733,0.502l-0.036,0.012l-0.049,0.012v43.207l0.085,0.013
			c1.225,0.269,2.473,0.44,3.733,0.501h0.062v-44.259L332.218,355.204z M299.99,399.464h0.061c1.261-0.062,2.509-0.232,3.733-0.502
			l0.037-0.012l0.049-0.013V355.73l-0.085-0.012c-1.224-0.27-2.473-0.441-3.733-0.502h-0.061V399.464z M275.535,363.393
			c-0.636,1.065-1.212,2.191-1.689,3.329c-1.2,2.852-1.91,5.863-2.081,8.96v3.194c0.184,3.097,0.881,6.108,2.081,8.96
			c0.489,1.138,1.053,2.264,1.689,3.329l0.11,0.196v-28.152L275.535,363.393z M356.625,391.361l0.109-0.196
			c0.637-1.065,1.2-2.191,1.689-3.329c1.199-2.852,1.909-5.863,2.081-8.947v-3.195c-0.184-3.097-0.882-6.108-2.081-8.959
			c-0.489-1.139-1.053-2.265-1.689-3.33l-0.109-0.196V391.361z M340.773,355.277c6.854,2.301,12.313,7.76,14.627,14.603l0.123,0.355
			v-8.69l-0.013-0.012c-0.856-1.2-1.836-2.35-2.9-3.415c-1.09-1.077-2.253-2.068-3.477-2.938l-0.013-0.012h-8.702L340.773,355.277z
			 M283.136,355.167c-1.224,0.869-2.399,1.86-3.476,2.938c-1.065,1.065-2.032,2.215-2.901,3.415l-0.012,0.012v8.69l0.122-0.355
			c2.313-6.842,7.785-12.301,14.627-14.603l0.355-0.122h-8.703L283.136,355.167z M327.212,356.024
			c-0.979,0.282-1.946,0.637-2.864,1.041l-0.11,0.049l0.074,0.062c1.199,1.077,2.166,2.35,2.876,3.807l0.122,0.245V356
			L327.212,356.024z M304.984,361.238l0.123-0.245c0.698-1.457,1.665-2.729,2.876-3.807l0.074-0.061l-0.11-0.049
			c-0.918-0.416-1.885-0.759-2.864-1.041l-0.073-0.024v5.227H304.984z M306.318,355.277c0.894,0.294,1.774,0.661,2.619,1.065
			l0.049,0.024l0.037-0.012l0.012-0.012c0.563-0.404,1.176-0.759,1.8-1.065l0.245-0.122h-5.117L306.318,355.277z M321.435,355.277
			c0.624,0.306,1.224,0.661,1.8,1.065l0.024,0.024h0.049l0.024-0.012c0.845-0.404,1.726-0.759,2.619-1.065l0.354-0.122h-5.116
			L321.435,355.277z M333.381,350.234v3.832h14.063l-0.195-0.11c-1.041-0.612-2.13-1.163-3.256-1.64
			c-3.342-1.42-6.892-2.13-10.551-2.13h-0.062V350.234z M332.218,350.198c-1.272,0.062-2.533,0.196-3.77,0.429l-0.049,0.012v3.415
			h3.893v-3.868L332.218,350.198z M327.225,350.883c-1.47,0.343-2.926,0.82-4.333,1.42c-1.126,0.478-2.216,1.028-3.256,1.64
			l-0.196,0.11h7.846v-3.183L327.225,350.883z M307.064,350.284c2.767,0.844,5.386,2.105,7.772,3.757l0.013,0.013h2.57l0.013-0.013
			c2.387-1.652,5.006-2.913,7.772-3.757l0.392-0.123h-18.936L307.064,350.284z M304.984,354.054h7.846l-0.196-0.11
			c-1.04-0.612-2.13-1.163-3.256-1.64c-1.407-0.6-2.864-1.065-4.333-1.42l-0.074-0.012v3.183H304.984z M299.99,354.054h3.892v-3.415
			l-0.049-0.012c-1.236-0.233-2.497-0.379-3.77-0.429h-0.061v3.856H299.99z M298.827,350.173c-3.66,0-7.209,0.722-10.551,2.13
			c-1.126,0.478-2.215,1.028-3.256,1.64l-0.196,0.11h14.064v-3.893h-0.062V350.173z"/>
		<path id="XMLID_467_" d="M333.442,349.133c2.803,0,5.569,0.404,8.213,1.224c2.767,0.845,5.373,2.105,7.76,3.746
			c0.551,0.379,1.102,0.795,1.641,1.224c1.579,1.273,3.035,2.717,4.32,4.308c0.429,0.526,0.845,1.077,1.225,1.628
			c1.64,2.35,2.9,4.933,3.745,7.675c0.686,2.179,1.089,4.455,1.224,6.744c0.037,0.539,0.049,1.089,0.049,1.616
			c0,0.539-0.012,1.077-0.049,1.616l0,0l0,0v20.624v1.604v4.945v1.555l-1.175,1.003l-3.77,3.207l-1.225,1.041l-22.031,18.727
			l-1.225,1.041l-3.77,3.206l-1.225,1.041l-11.016,9.376l-11.016-9.376l-1.224-1.041l-3.757-3.206l-1.224-1.041l-22.02-18.739
			l-1.224-1.04l-3.758-3.207l-1.175-1.004v-1.555v-4.933v-1.604v-20.624l0,0l0,0c-0.037-0.539-0.049-1.089-0.049-1.616
			c0-0.539,0.012-1.077,0.049-1.616c0.135-2.289,0.539-4.565,1.224-6.744c0.845-2.729,2.105-5.313,3.746-7.675
			c0.379-0.551,0.795-1.102,1.224-1.628c1.285-1.591,2.729-3.035,4.321-4.308c0.526-0.429,1.077-0.833,1.64-1.224
			c2.387-1.652,4.994-2.913,7.76-3.746c2.656-0.808,5.422-1.224,8.213-1.224h1.224h3.77h1.224h11.09h11.102h1.224h3.771H333.442
			 M333.319,354.115h0.123h13.782h0.44l-0.38-0.232c-1.04-0.612-2.129-1.163-3.256-1.64c-3.354-1.42-6.903-2.13-10.575-2.13h-0.122
			v0.122v3.77v0.11 M314.837,354.115h0.037h1.261h1.261h0.037l0.036-0.024c2.387-1.652,4.994-2.913,7.761-3.746l0.783-0.245h-0.82
			h-9.058h-9.058h-0.82l0.783,0.245c2.767,0.845,5.374,2.105,7.761,3.746L314.837,354.115 M284.604,354.115h0.44h13.782h0.123
			v-0.123v-3.77V350.1h-0.123c-3.672,0-7.233,0.722-10.575,2.129c-1.126,0.478-2.228,1.028-3.256,1.641L284.604,354.115
			 M328.338,354.115h0.122h3.771h0.122v-0.123v-3.733v-0.123h-0.122c-1.273,0.061-2.546,0.196-3.782,0.428l-0.098,0.024v0.098v3.305
			v0.123 M299.929,354.115h0.123h3.77h0.123v-0.123v-3.305v-0.098l-0.098-0.024c-1.236-0.232-2.509-0.379-3.782-0.428h-0.122v0.123
			v3.733v0.123 M319.219,354.115h0.441h7.564h0.122v-0.123v-3.048v-0.159l-0.147,0.037c-1.469,0.343-2.925,0.82-4.345,1.42
			c-1.126,0.477-2.228,1.028-3.256,1.64L319.219,354.115 M304.923,354.115h0.123h7.564h0.44l-0.379-0.232
			c-1.04-0.612-2.13-1.163-3.256-1.64c-1.407-0.6-2.864-1.077-4.345-1.42l-0.147-0.037v0.159v3.048V354.115 M355.584,370.602v-0.747
			v-8.299v-0.037l-0.024-0.037c-0.869-1.212-1.836-2.362-2.9-3.427c-1.09-1.089-2.265-2.081-3.488-2.95l-0.037-0.024h-0.037h-8.311
			h-0.747l0.71,0.233c3.366,1.126,6.476,3.06,8.997,5.581s4.455,5.63,5.594,8.984L355.584,370.602 M323.271,356.44l0.073-0.037
			h0.013l0.012-0.012c0.845-0.404,1.727-0.759,2.607-1.064l0.71-0.233h-0.746h-4.468h-0.539l0.49,0.233
			c0.624,0.293,1.224,0.648,1.787,1.052l0.012,0.012L323.271,356.44 M308.999,356.44l0.061-0.049l0.013-0.012
			c0.563-0.404,1.163-0.759,1.787-1.052l0.489-0.233h-0.538h-4.468h-0.747l0.709,0.233c0.894,0.293,1.763,0.648,2.607,1.052
			l0.013,0.012h0.012L308.999,356.44 M276.685,370.602l0.233-0.71c1.138-3.366,3.072-6.463,5.593-8.984
			c2.521-2.521,5.63-4.443,8.997-5.581l0.71-0.233h-0.747h-8.311h-0.037l-0.037,0.024c-1.224,0.869-2.399,1.861-3.489,2.95
			c-1.065,1.065-2.044,2.215-2.901,3.427l-0.024,0.037v0.037v8.299v0.734 M333.319,423.821l0.196-0.171l22.02-18.739l0.049-0.037
			v-0.062v-9.792v-2.02V384.8v-7.466c0-5.937-2.313-11.518-6.512-15.716c-4.161-4.162-9.706-6.475-15.594-6.512h-0.036h-0.123v0.123
			v44.198v1.225v3.684v1.225v17.98V423.821 M316.135,438.437l0.073-0.074l11.102-9.437l0.049-0.037v-0.061v-23.954v-1.249v-3.781
			v-1.273v-26.879v-5.361c0-3.39-1.518-6.561-4.149-8.703c-0.354-0.281-0.722-0.551-1.113-0.795
			c-1.358-0.857-2.864-1.396-4.443-1.616c-0.502-0.073-1.004-0.098-1.506-0.098l0,0c-0.501,0-1.003,0.037-1.505,0.098
			c-1.592,0.208-3.085,0.759-4.443,1.616c-0.392,0.245-0.759,0.514-1.114,0.795c-2.644,2.142-4.149,5.313-4.149,8.703v5.361v26.879
			v1.261v3.782v1.248v23.954v0.062l0.049,0.036l11.089,9.438L316.135,438.437 M298.95,423.821v-0.27v-17.98v-1.224v-3.696v-1.225
			v-44.198v-0.123h-0.123h-0.037c-5.887,0.037-11.432,2.338-15.594,6.512c-4.198,4.198-6.512,9.78-6.512,15.716v7.466v8.201v2.02
			v9.792v0.062l0.049,0.037l22.02,18.739L298.95,423.821 M332.341,399.537v-0.135v-44.137v-0.134l-0.135,0.012
			c-1.261,0.061-2.521,0.232-3.746,0.501c-0.012,0-0.012,0-0.024,0h-0.012l-0.098,0.024v0.098v43.122v0.098l0.098,0.024h0.012
			c0.013,0,0.013,0,0.024,0c1.225,0.27,2.485,0.44,3.746,0.515L332.341,399.537 M299.929,399.537l0.135-0.012
			c1.261-0.062,2.521-0.232,3.746-0.502c0.012,0,0.012,0,0.024,0h0.012l0.098-0.024V398.9v-43.121v-0.098l-0.098-0.025h-0.012
			c-0.012,0-0.012,0-0.024,0c-1.224-0.269-2.485-0.44-3.746-0.514l-0.135-0.012v0.134v44.15V399.537 M327.358,361.496v-0.539v-4.884
			v-0.159l-0.159,0.049c-0.991,0.282-1.958,0.637-2.876,1.053l-0.024,0.012l-0.172,0.073l0.147,0.123
			c1.199,1.065,2.154,2.338,2.852,3.782L327.358,361.496 M304.923,361.496l0.232-0.478c0.698-1.444,1.665-2.717,2.853-3.782
			l0.146-0.123l-0.172-0.073l-0.012-0.012h-0.013c-0.918-0.416-1.885-0.771-2.876-1.053l-0.159-0.049v0.159v4.872V361.496
			 M275.706,391.582v-0.441v-27.711v-0.44l-0.232,0.379c-0.637,1.065-1.212,2.191-1.689,3.341c-1.211,2.852-1.909,5.875-2.093,8.972
			l0,0l0,0v3.194l0,0l0,0c0.184,3.097,0.881,6.12,2.093,8.972c0.49,1.15,1.053,2.264,1.689,3.341L275.706,391.582 M356.563,391.582
			l0.232-0.379c0.637-1.065,1.212-2.191,1.689-3.342c1.212-2.852,1.909-5.875,2.093-8.972l0,0l0,0v-3.195l0,0l0,0
			c-0.184-3.097-0.881-6.12-2.093-8.972c-0.49-1.15-1.053-2.264-1.689-3.341l-0.232-0.379v0.44v27.711V391.582 M275.706,404.042
			v-0.27v-10.379v-0.037l-0.024-0.037c-1.64-2.35-2.901-4.933-3.746-7.674l-0.245-0.771v0.808v14.884v0.062l0.049,0.036l3.77,3.207
			L275.706,404.042 M356.563,404.042l0.196-0.172l3.77-3.207l0.049-0.036v-0.062v-14.872v-0.808l-0.245,0.771
			c-0.844,2.729-2.104,5.312-3.745,7.674l-0.024,0.037v0.037v10.379V404.042 M299.929,404.445h0.123
			c1.273-0.061,2.546-0.195,3.782-0.428l0.098-0.024v-0.099v-3.745v-0.159l-0.159,0.049c-0.012,0-0.012,0-0.024,0l0,0l0,0
			c-1.212,0.257-2.46,0.416-3.709,0.478h-0.123v0.122v3.685v0.122 M332.341,404.445v-0.122v-3.685v-0.122h-0.123
			c-1.248-0.062-2.497-0.221-3.708-0.478l0,0l0,0c-0.013,0-0.013,0-0.025,0l-0.158-0.049v0.159v3.745v0.099l0.098,0.024
			c1.236,0.232,2.509,0.379,3.782,0.428H332.341 M356.563,410.59l0.196-0.171l3.77-3.207l0.049-0.037v-0.061v-4.945v-0.27
			l-0.195,0.172l-3.771,3.207l-0.049,0.036v0.062v4.944V410.59 M275.706,410.59v-0.27v-4.944v-0.062l-0.049-0.036l-3.77-3.207
			l-0.196-0.172v0.27v4.945v0.061l0.049,0.037l3.77,3.207L275.706,410.59 M328.338,428.057l0.196-0.172l3.77-3.206l0.049-0.037
			v-0.062v-19.058V405.4h-0.122c-1.249-0.049-2.51-0.196-3.746-0.404l-0.146-0.024v0.147v22.668V428.057 M303.944,428.057v-0.27
			v-22.668v-0.147l-0.147,0.024c-1.236,0.221-2.497,0.355-3.746,0.404h-0.123v0.122v19.058v0.062l0.049,0.037l3.77,3.206
			L303.944,428.057 M333.319,430.37l0.196-0.172l22.02-18.739l0.049-0.037v-0.061v-4.945v-0.27l-0.195,0.172l-22.021,18.739
			l-0.049,0.037v0.061v4.945V430.37 M298.95,430.37v-0.27v-4.945v-0.061l-0.049-0.037l-22.02-18.739l-0.196-0.172v0.27v4.945v0.061
			l0.049,0.037l22.02,18.739L298.95,430.37 M328.338,434.604l0.196-0.171l3.77-3.207l0.049-0.036v-0.062v-4.945v-0.27l-0.195,0.172
			l-3.771,3.207l-0.049,0.036v0.062v4.945V434.604 M303.944,434.604v-0.269v-4.945v-0.062l-0.049-0.036l-3.77-3.207l-0.196-0.172
			v0.27v4.945v0.062l0.049,0.036l3.77,3.207L303.944,434.604 M316.135,439.722l-11.016-9.376l-0.196-0.172v0.27v4.945v0.061
			l0.049,0.037l11.09,9.437l0.073,0.074l0.073-0.074l11.102-9.437l0.049-0.037v-0.061v-4.945v-0.27l-0.195,0.172L316.135,439.722
			 M333.442,349.011h-1.225h-3.77h-1.224h-11.103h-11.089h-1.224h-3.77h-1.224c-2.876,0-5.643,0.428-8.25,1.224
			c-2.803,0.857-5.435,2.13-7.785,3.77c-0.563,0.392-1.114,0.796-1.64,1.224c-1.604,1.285-3.048,2.729-4.333,4.321
			c-0.428,0.526-0.833,1.077-1.224,1.64c-1.628,2.338-2.901,4.933-3.77,7.699c-0.673,2.154-1.089,4.431-1.224,6.781
			c-0.037,0.539-0.049,1.077-0.049,1.628s0.012,1.089,0.049,1.628v20.625v1.604v4.944v1.604l1.224,1.041l3.77,3.206l1.224,1.041
			l22.02,18.739l1.224,1.04l3.77,3.207l1.224,1.041l11.089,9.437l0,0l11.102-9.437l1.224-1.041l3.771-3.207l1.224-1.04l22.02-18.739
			l1.225-1.041l3.77-3.206l1.225-1.041v-1.604v-4.957v-1.604v-20.624c0.036-0.539,0.049-1.077,0.049-1.628s-0.013-1.089-0.049-1.628
			c-0.135-2.35-0.551-4.615-1.225-6.781c-0.869-2.778-2.142-5.373-3.77-7.699c-0.392-0.563-0.796-1.102-1.225-1.64
			c-1.285-1.591-2.741-3.048-4.333-4.321c-0.525-0.428-1.076-0.833-1.64-1.224c-2.362-1.628-4.981-2.913-7.784-3.77
			C339.085,349.439,336.318,349.011,333.442,349.011L333.442,349.011z M333.442,353.992v-3.77l0,0c3.647,0,7.197,0.71,10.526,2.13
			c1.126,0.478,2.203,1.016,3.243,1.64H333.442L333.442,353.992z M314.874,353.992c-2.362-1.628-4.981-2.913-7.784-3.77h9.057h9.058
			c-2.803,0.857-5.435,2.13-7.784,3.77h-1.261H314.874L314.874,353.992z M285.057,353.992c1.041-0.612,2.13-1.163,3.244-1.64
			c3.342-1.408,6.879-2.13,10.526-2.13v3.77H285.057L285.057,353.992z M328.46,353.992v-3.305c1.236-0.232,2.497-0.367,3.771-0.428
			v3.733H328.46L328.46,353.992z M300.051,353.992v-3.733c1.273,0.061,2.521,0.196,3.77,0.428v3.305H300.051L300.051,353.992z
			 M319.672,353.992c1.041-0.612,2.13-1.163,3.244-1.64c1.407-0.6,2.852-1.065,4.32-1.408v3.048H319.672L319.672,353.992z
			 M305.045,353.992v-3.048c1.468,0.343,2.913,0.82,4.321,1.408c1.126,0.478,2.203,1.016,3.243,1.64H305.045L305.045,353.992z
			 M340.799,355.216h8.311c1.236,0.869,2.387,1.848,3.476,2.938c1.065,1.065,2.032,2.203,2.889,3.403v8.299
			C353.137,362.977,347.689,357.53,340.799,355.216L340.799,355.216L340.799,355.216z M323.283,356.293l-0.013-0.012
			c-0.563-0.404-1.175-0.759-1.812-1.065h4.468c-0.906,0.306-1.774,0.661-2.619,1.065
			C323.308,356.281,323.295,356.293,323.283,356.293L323.283,356.293z M308.986,356.293c-0.012,0-0.012-0.012-0.024-0.012
			c-0.845-0.404-1.726-0.759-2.632-1.065h4.468c-0.637,0.306-1.236,0.661-1.812,1.065
			C308.999,356.281,308.999,356.293,308.986,356.293L308.986,356.293z M276.808,369.855v-8.299c0.857-1.212,1.824-2.338,2.889-3.403
			c1.089-1.077,2.24-2.056,3.476-2.938h8.311C284.592,357.53,279.133,362.977,276.808,369.855L276.808,369.855z M333.442,423.552
			v-17.98v-1.224v-3.696v-1.225v-44.198h0.036c5.863,0.037,11.359,2.326,15.509,6.475c4.174,4.174,6.475,9.718,6.475,15.63v7.466
			v8.201v2.02v9.792L333.442,423.552L333.442,423.552z M316.135,438.277l-11.089-9.438v-23.953v-1.249v-3.782v-1.285v-26.879v-5.361
			c0-3.476,1.603-6.573,4.113-8.617c0.354-0.282,0.722-0.551,1.102-0.796c1.31-0.82,2.803-1.383,4.394-1.591
			c0.49-0.062,0.979-0.098,1.481-0.098l0,0c0.502,0,1.004,0.037,1.493,0.098c1.604,0.22,3.097,0.771,4.395,1.591
			c0.379,0.245,0.746,0.502,1.102,0.796c2.509,2.032,4.112,5.141,4.112,8.617v5.361v26.879v1.273v3.781v1.249v23.954
			L316.135,438.277L316.135,438.277L316.135,438.277z M298.827,423.552l-22.02-18.739v-9.792v-2.02V384.8v-7.466
			c0-5.9,2.301-11.457,6.475-15.63c4.149-4.149,9.657-6.438,15.508-6.475h0.037v44.198v1.225v3.684v1.225V423.552L298.827,423.552z
			 M332.218,399.402c-1.261-0.061-2.509-0.232-3.721-0.502c-0.013,0-0.024-0.012-0.037-0.012v-43.109c0.013,0,0.024,0,0.037-0.012
			c1.212-0.269,2.46-0.44,3.721-0.502V399.402L332.218,399.402z M300.051,399.402v-44.137c1.261,0.062,2.509,0.233,3.721,0.502
			c0.012,0,0.024,0.012,0.037,0.012V398.9c-0.012,0-0.024,0-0.037,0.013C302.561,399.17,301.324,399.342,300.051,399.402
			L300.051,399.402z M327.236,360.969c-0.71-1.457-1.689-2.754-2.889-3.819c0.013,0,0.013-0.012,0.024-0.012
			c0.931-0.417,1.885-0.759,2.864-1.041V360.969L327.236,360.969z M305.045,360.969v-4.872c0.979,0.281,1.934,0.624,2.864,1.041
			c0.013,0,0.013,0.012,0.024,0.012C306.734,358.215,305.743,359.513,305.045,360.969L305.045,360.969z M356.686,391.141v-27.711
			c0.637,1.065,1.2,2.179,1.689,3.33c1.199,2.852,1.897,5.851,2.081,8.935v3.195c-0.184,3.084-0.869,6.083-2.081,8.935
			C357.886,388.974,357.322,390.076,356.686,391.141L356.686,391.141z M275.583,391.141c-0.636-1.065-1.199-2.179-1.689-3.329
			c-1.2-2.852-1.897-5.851-2.081-8.936v-3.194c0.184-3.084,0.869-6.083,2.081-8.935c0.49-1.151,1.053-2.265,1.689-3.33V391.141
			L275.583,391.141z M356.686,403.772v-10.379c1.628-2.338,2.901-4.933,3.771-7.699v14.884L356.686,403.772L356.686,403.772z
			 M275.583,403.772l-3.77-3.207v-14.872c0.857,2.778,2.142,5.374,3.77,7.699V403.772L275.583,403.772z M332.218,404.311
			c-1.272-0.061-2.533-0.195-3.77-0.428v-3.746c0.012,0,0.024,0,0.036,0.013c1.212,0.257,2.461,0.416,3.722,0.478v3.684H332.218z
			 M300.051,404.311v-3.684c1.273-0.062,2.521-0.221,3.721-0.478c0.012,0,0.024,0,0.037-0.013v3.746
			C302.585,404.115,301.324,404.262,300.051,404.311L300.051,404.311z M356.686,410.32v-4.944l3.771-3.207v4.945L356.686,410.32
			L356.686,410.32z M275.583,410.32l-3.77-3.206v-4.945l3.77,3.207V410.32L275.583,410.32z M328.46,427.8v-22.669
			c1.225,0.221,2.485,0.355,3.771,0.416v19.058L328.46,427.8L328.46,427.8z M303.821,427.8l-3.77-3.207v-19.058
			c1.285-0.049,2.534-0.196,3.77-0.416V427.8L303.821,427.8z M333.442,430.101v-4.945l22.02-18.739v4.945L333.442,430.101
			L333.442,430.101z M298.827,430.101l-22.02-18.739v-4.945l22.02,18.739V430.101L298.827,430.101z M328.46,434.348v-4.944
			l3.771-3.207v4.944L328.46,434.348L328.46,434.348z M303.821,434.348l-3.77-3.207v-4.944l3.77,3.207V434.348L303.821,434.348z
			 M316.135,439.881L316.135,439.881l11.102-9.438v4.945l-11.102,9.437l0,0l-11.089-9.437v-4.945L316.135,439.881L316.135,439.881z"
			/>
	</g>
	<g id="XMLID_283_">
		<path id="XMLID_171_" d="M316.062,467.028c-9.988,0-19.67-1.958-28.789-5.813c-8.813-3.721-16.72-9.058-23.513-15.851
			c-6.793-6.794-12.13-14.7-15.851-23.514c-3.856-9.118-5.814-18.801-5.814-28.788c0-9.988,1.958-19.67,5.814-28.789
			c3.721-8.813,9.058-16.72,15.851-23.513c6.793-6.793,14.7-12.13,23.513-15.851c9.119-3.855,18.8-5.814,28.789-5.814
			c9.987,0,19.669,1.958,28.788,5.814c8.813,3.721,16.72,9.058,23.514,15.851c6.793,6.793,12.129,14.7,15.851,23.513
			c3.855,9.119,5.813,18.801,5.813,28.789c0,9.987-1.958,19.67-5.813,28.788c-3.722,8.813-9.058,16.72-15.851,23.514
			c-6.794,6.793-14.701,12.13-23.514,15.851C335.743,465.07,326.049,467.028,316.062,467.028z M316.062,320.198
			c-9.841,0-19.376,1.921-28.36,5.728c-4.321,1.824-8.482,4.088-12.375,6.72c-3.856,2.607-7.491,5.606-10.784,8.899
			c-3.292,3.292-6.291,6.928-8.898,10.783c-2.631,3.892-4.896,8.054-6.72,12.375c-3.794,8.984-5.729,18.519-5.729,28.36
			c0,9.841,1.922,19.376,5.729,28.36c1.824,4.32,4.088,8.481,6.72,12.374c2.607,3.855,5.606,7.491,8.898,10.783
			c3.292,3.293,6.928,6.292,10.784,8.898c3.892,2.632,8.054,4.896,12.375,6.721c8.984,3.794,18.52,5.728,28.36,5.728
			s19.376-1.921,28.359-5.728c4.321-1.824,8.482-4.089,12.375-6.721c3.855-2.606,7.491-5.605,10.783-8.898
			c3.293-3.292,6.292-6.928,8.898-10.783c2.632-3.893,4.896-8.054,6.72-12.374c3.795-8.984,5.729-18.52,5.729-28.36
			c0-9.841-1.922-19.376-5.729-28.36c-1.823-4.321-4.088-8.482-6.72-12.375c-2.606-3.855-5.605-7.491-8.898-10.783
			c-3.292-3.293-6.928-6.292-10.783-8.899c-3.893-2.631-8.054-4.896-12.375-6.72C335.449,322.131,325.902,320.198,316.062,320.198z"
			/>
		<path id="XMLID_166_" d="M316.062,319.157c9.976,0,19.657,1.958,28.764,5.802c4.382,1.848,8.604,4.149,12.559,6.818
			c3.917,2.644,7.589,5.679,10.942,9.021c3.354,3.342,6.377,7.026,9.021,10.943c2.669,3.954,4.957,8.176,6.818,12.558
			c3.855,9.106,5.802,18.789,5.802,28.764s-1.959,19.657-5.802,28.764c-1.849,4.382-4.149,8.604-6.818,12.559
			c-2.644,3.917-5.679,7.589-9.021,10.942s-7.025,6.377-10.942,9.021c-3.954,2.669-8.177,4.958-12.559,6.818
			c-9.106,3.855-18.788,5.802-28.764,5.802s-19.658-1.959-28.764-5.802c-4.382-1.849-8.605-4.149-12.558-6.818
			c-3.917-2.644-7.589-5.679-10.943-9.021c-3.354-3.342-6.377-7.025-9.021-10.942c-2.668-3.954-4.957-8.177-6.817-12.559
			c-3.855-9.106-5.802-18.788-5.802-28.764s1.958-19.658,5.802-28.764c1.848-4.382,4.149-8.604,6.817-12.558
			c2.644-3.917,5.68-7.589,9.021-10.943c3.342-3.354,7.026-6.377,10.943-9.021c3.953-2.668,8.176-4.958,12.558-6.818
			C296.416,321.116,306.086,319.157,316.062,319.157 M316.062,465.988c9.841,0,19.4-1.934,28.385-5.729
			c4.32-1.823,8.494-4.088,12.387-6.72c3.867-2.607,7.49-5.605,10.795-8.91c3.306-3.306,6.292-6.929,8.911-10.796
			c2.632-3.893,4.896-8.066,6.72-12.387c3.807-8.984,5.729-18.544,5.729-28.385c0-9.841-1.934-19.4-5.729-28.385
			c-1.823-4.321-4.088-8.495-6.72-12.387c-2.607-3.868-5.605-7.491-8.911-10.796c-3.305-3.305-6.928-6.291-10.795-8.911
			c-3.905-2.631-8.066-4.896-12.387-6.72c-8.984-3.807-18.544-5.729-28.385-5.729s-19.4,1.934-28.385,5.729
			c-4.321,1.836-8.482,4.101-12.387,6.732c-3.868,2.607-7.491,5.606-10.796,8.911c-3.305,3.305-6.292,6.928-8.911,10.796
			c-2.632,3.904-4.896,8.066-6.72,12.387c-3.807,8.984-5.729,18.543-5.729,28.385s1.934,19.4,5.729,28.384
			c1.824,4.321,4.088,8.495,6.72,12.387c2.607,3.868,5.606,7.491,8.911,10.796s6.928,6.291,10.796,8.911
			c3.904,2.631,8.066,4.896,12.387,6.72C296.673,464.066,306.221,465.988,316.062,465.988 M316.062,319.035
			c-40.882,0-74.028,33.146-74.028,74.028s33.146,74.027,74.028,74.027s74.027-33.146,74.027-74.027
			S356.955,319.035,316.062,319.035L316.062,319.035z M316.062,465.866c-9.829,0-19.364-1.922-28.336-5.717
			c-4.309-1.823-8.47-4.088-12.362-6.707c-3.855-2.607-7.479-5.594-10.771-8.887c-3.293-3.292-6.292-6.915-8.886-10.771
			c-2.632-3.893-4.884-8.055-6.708-12.362c-3.794-8.973-5.716-18.507-5.716-28.336c0-9.829,1.922-19.364,5.716-28.335
			c1.824-4.309,4.088-8.47,6.708-12.363c2.607-3.855,5.593-7.479,8.886-10.771c3.292-3.292,6.916-6.292,10.771-8.886
			c3.893-2.632,8.054-4.884,12.362-6.708c8.972-3.794,18.507-5.716,28.336-5.716c9.828,0,19.363,1.922,28.335,5.716
			c4.309,1.824,8.471,4.088,12.363,6.708c3.855,2.607,7.479,5.594,10.771,8.886c3.293,3.292,6.292,6.916,8.887,10.771
			c2.632,3.893,4.884,8.054,6.707,12.363c3.795,8.972,5.716,18.507,5.716,28.335c0,9.829-1.921,19.363-5.716,28.336
			c-1.823,4.308-4.088,8.47-6.707,12.362c-2.607,3.855-5.594,7.479-8.887,10.771c-3.292,3.293-6.915,6.292-10.771,8.887
			c-3.893,2.632-8.055,4.884-12.363,6.707C335.425,463.944,325.89,465.866,316.062,465.866L316.062,465.866z"/>
	</g>
	<g id="XMLID_286_">
		<path id="XMLID_162_" d="M316.135,461.974c-9.314,0-18.348-1.824-26.854-5.423c-8.213-3.476-15.594-8.445-21.922-14.785
			c-6.328-6.341-11.31-13.709-14.786-21.922c-3.599-8.507-5.422-17.54-5.422-26.855c0-9.314,1.824-18.348,5.422-26.854
			c3.476-8.213,8.446-15.594,14.786-21.922s13.709-11.31,21.922-14.786c8.507-3.599,17.54-5.422,26.854-5.422
			s18.348,1.824,26.854,5.422c8.213,3.476,15.594,8.445,21.922,14.786c6.341,6.34,11.31,13.709,14.786,21.922
			c3.599,8.507,5.422,17.54,5.422,26.854c0,9.315-1.823,18.348-5.422,26.855c-3.477,8.213-8.445,15.594-14.786,21.922
			c-6.341,6.34-13.709,11.31-21.922,14.785C334.482,460.149,325.449,461.974,316.135,461.974z M316.135,325.106
			c-9.168,0-18.054,1.799-26.426,5.336c-4.027,1.702-7.907,3.807-11.53,6.255c-3.599,2.423-6.977,5.214-10.049,8.286
			c-3.072,3.072-5.863,6.451-8.287,10.049c-2.448,3.623-4.553,7.503-6.254,11.53c-3.538,8.372-5.337,17.258-5.337,26.426
			s1.799,18.054,5.337,26.426c1.701,4.027,3.807,7.907,6.254,11.53c2.424,3.599,5.214,6.977,8.287,10.049s6.451,5.863,10.049,8.286
			c3.623,2.448,7.503,4.554,11.53,6.255c8.372,3.537,17.258,5.337,26.426,5.337s18.054-1.8,26.426-5.337
			c4.027-1.701,7.907-3.807,11.53-6.255c3.599-2.423,6.977-5.214,10.049-8.286s5.863-6.45,8.287-10.049
			c2.447-3.623,4.553-7.503,6.254-11.53c3.538-8.372,5.337-17.259,5.337-26.426s-1.799-18.054-5.337-26.426
			c-1.701-4.027-3.807-7.907-6.254-11.53c-2.424-3.599-5.215-6.977-8.287-10.049c-3.072-3.072-6.45-5.863-10.049-8.286
			c-3.635-2.448-7.503-4.553-11.53-6.255C334.188,326.905,325.303,325.106,316.135,325.106z"/>
		<path id="XMLID_155_" d="M316.135,324.065c9.303,0,18.336,1.824,26.83,5.422c4.088,1.726,8.018,3.868,11.701,6.353
			c3.647,2.46,7.087,5.3,10.196,8.421c3.121,3.121,5.948,6.548,8.421,10.196c2.484,3.684,4.627,7.625,6.353,11.701
			c3.599,8.495,5.423,17.528,5.423,26.83s-1.824,18.335-5.423,26.831c-1.726,4.088-3.868,8.017-6.353,11.701
			c-2.46,3.647-5.3,7.087-8.421,10.196c-3.121,3.121-6.549,5.948-10.196,8.421c-3.684,2.484-7.625,4.627-11.701,6.353
			c-8.494,3.599-17.527,5.422-26.83,5.422s-18.335-1.823-26.83-5.422c-4.088-1.726-8.017-3.868-11.702-6.353
			c-3.647-2.46-7.087-5.3-10.196-8.421c-3.121-3.122-5.949-6.549-8.421-10.196c-2.485-3.685-4.627-7.626-6.353-11.701
			c-3.599-8.495-5.422-17.528-5.422-26.831s1.824-18.335,5.422-26.83c1.726-4.088,3.868-8.017,6.353-11.701
			c2.46-3.647,5.3-7.087,8.421-10.196c3.121-3.122,6.548-5.949,10.196-8.421c3.685-2.485,7.625-4.626,11.702-6.353
			C297.812,325.889,306.832,324.065,316.135,324.065 M316.135,460.934c9.168,0,18.066-1.8,26.45-5.337
			c4.027-1.701,7.907-3.807,11.543-6.267c3.599-2.437,6.977-5.227,10.062-8.299c3.072-3.072,5.862-6.463,8.298-10.062
			c2.448-3.636,4.565-7.516,6.268-11.542c3.537-8.373,5.336-17.271,5.336-26.451c0-9.167-1.799-18.066-5.336-26.451
			c-1.702-4.027-3.807-7.907-6.268-11.542c-2.436-3.599-5.226-6.977-8.298-10.062c-3.072-3.072-6.463-5.863-10.062-8.299
			c-3.636-2.448-7.516-4.565-11.543-6.267c-8.372-3.538-17.271-5.337-26.45-5.337c-9.168,0-18.066,1.799-26.451,5.337
			c-4.027,1.701-7.907,3.807-11.542,6.267c-3.599,2.436-6.977,5.227-10.061,8.299c-3.072,3.072-5.863,6.463-8.299,10.062
			c-2.448,3.635-4.565,7.515-6.267,11.542c-3.537,8.373-5.336,17.271-5.336,26.451c0,9.168,1.799,18.066,5.336,26.451
			c1.702,4.026,3.807,7.906,6.267,11.542c2.436,3.599,5.227,6.977,8.299,10.062c3.072,3.072,6.462,5.862,10.061,8.299
			c3.635,2.447,7.516,4.565,11.542,6.267C298.068,459.146,306.967,460.934,316.135,460.934 M316.135,323.943
			c-38.127,0-69.046,30.918-69.046,69.046s30.918,69.046,69.046,69.046c38.128,0,69.046-30.919,69.046-69.046
			S354.274,323.943,316.135,323.943L316.135,323.943z M316.135,460.811c-9.155,0-18.042-1.787-26.402-5.324
			c-4.015-1.701-7.895-3.807-11.518-6.255c-3.586-2.423-6.965-5.214-10.037-8.286s-5.851-6.45-8.286-10.037
			c-2.448-3.623-4.553-7.503-6.255-11.518c-3.537-8.36-5.324-17.246-5.324-26.402c0-9.155,1.787-18.042,5.324-26.401
			c1.702-4.015,3.807-7.895,6.255-11.518c2.423-3.586,5.214-6.964,8.286-10.037s6.451-5.851,10.037-8.287
			c3.623-2.448,7.503-4.553,11.518-6.254c8.36-3.538,17.247-5.325,26.402-5.325s18.042,1.787,26.401,5.325
			c4.015,1.701,7.896,3.807,11.519,6.254c3.586,2.424,6.964,5.214,10.036,8.287s5.851,6.45,8.287,10.037
			c2.447,3.623,4.553,7.503,6.254,11.518c3.538,8.36,5.325,17.246,5.325,26.401c0,9.156-1.787,18.042-5.325,26.402
			c-1.701,4.015-3.807,7.895-6.254,11.518c-2.424,3.587-5.215,6.965-8.287,10.037s-6.45,5.851-10.036,8.286
			c-3.623,2.448-7.504,4.554-11.519,6.255C334.177,459.023,325.29,460.811,316.135,460.811L316.135,460.811z"/>
	</g>
</g>
</svg>
